# xmcd
#
# Track frame offsets:
#	150
#	19590
#	34692
#	54485
#	69437
#	85415
#	104800
#	123512
#	146590
#	160965
#	178715
#	186432
#
# Disc length: 2736 seconds
#
# Revision: 2
# Processed by: cddbd v1.5.1PL0 Copyright (c) Steve Scherf et al.
# Submitted via: audiograbber 1.83.01
#
DISCID=aa0aae0c
DTITLE=Various Artist - Memphis Music Sampler
DYEAR=1993
DGENRE=Blues
TTITLE0=Big Joe Scientist - Boy Who Falls
TTITLE1=Capella Ensemble - Quintet in E flat Major
TTITLE2=The Mules - Handbook of Heartbreak
TTITLE3=Tom Hackenberger and Friends - One For Tom
TTITLE4=Robert Nighthawk and The Wampus Cats - Shake Yours
TTITLE5=Reba Russell - Secrets You'll Never Know
TTITLE6=Joe Norman - Gerry Finley - Wishing
TTITLE7=Wally Ford - Crawling Like a Lizzard
TTITLE8=Klaudia - Saved By Distance
TTITLE9=Becc Lester - Someone Being Found
TTITLE10=Tom Hackenberger and Friends - One for Tom (2)
TTITLE11=Eddie Dattel - Mother
EXTD=YEAR: 1993 ID3G:   0
EXTT0=
EXTT1=
EXTT2=
EXTT3=
EXTT4=
EXTT5=
EXTT6=
EXTT7=
EXTT8=
EXTT9=
EXTT10=
EXTT11=
PLAYORDER=
